# xmcd
#
# Track frame offsets: 
#        150
#        18642
#        39604
#        65635
#        84369
#        107211
#        126311
#        155055
#        169231
#        187988
#        214186
#        228807
#
# Disc length: 3221 seconds
#
# Revision: 2
# Processed by: cddbd v1.5.2PL0 Copyright (c) Steve Scherf et al.
# Submitted via: ExactAudioCopy v0.99pb4
#
DISCID=a50c930c
DTITLE=Cleveland Fats - The Way Things Go
DYEAR=2006
DGENRE=Blues
TTITLE0=Stay Away Baby
TTITLE1=Don't Call Me
TTITLE2=Invisible Man
TTITLE3=Cheaters Never Win
TTITLE4=Long Gone
TTITLE5=It Ain't Right
TTITLE6=Blues Time
TTITLE7=Bakin' Fats
TTITLE8=Cell Phone Blues
TTITLE9=You'll Love Again
TTITLE10=Dead Or Alive
TTITLE11=That's The Way Things Go
EXTD=
EXTT0=
EXTT1=
EXTT2=
EXTT3=
EXTT4=
EXTT5=
EXTT6=
EXTT7=
EXTT8=
EXTT9=
EXTT10=
EXTT11=
PLAYORDER=
